<?xml version="1.0" encoding="UTF-8" standalone="no" ?>
<!DOCTYPE svg PUBLIC "-//W3C//DTD SVG 1.1//EN" "http://www.w3.org/Graphics/SVG/1.1/DTD/svg11.dtd">
<svg xmlns="http://www.w3.org/2000/svg" xmlns:xlink="http://www.w3.org/1999/xlink" version="1.1" width="1080" height="1080" viewBox="0 0 1080 1080" xml:space="preserve">
<desc>Created with Fabric.js 5.2.4</desc>
<defs>
</defs>
<g transform="matrix(1 0 0 1 540 540)" id="b1eaaa80-b407-425e-9f7c-23a9b47cce69"  >
<rect style="stroke: none; stroke-width: 1; stroke-dasharray: none; stroke-linecap: butt; stroke-dashoffset: 0; stroke-linejoin: miter; stroke-miterlimit: 4; fill: rgb(255,255,255); fill-rule: nonzero; opacity: 1; visibility: hidden;" vector-effect="non-scaling-stroke"  x="-540" y="-540" rx="0" ry="0" width="1080" height="1080" />
</g>
<g transform="matrix(1 0 0 1 540 540)" id="aed730ff-6d40-4d04-82af-4441a41100a9"  >
</g>
<g transform="matrix(0.8 0 0 0.8 540 571.97)"  >
<path style="stroke: rgb(255,255,255); stroke-width: 1; stroke-dasharray: none; stroke-linecap: butt; stroke-dashoffset: 0; stroke-linejoin: miter; stroke-miterlimit: 4; fill: rgb(255,255,255); fill-rule: nonzero; opacity: 1;"  transform=" translate(-657.55, -501.55)" d="M 410.1 941.2 L 410.1 940.9000000000001 C 410.1 908.0000000000001 434.3 878.8000000000001 470.3 878.8000000000001 C 490.5 878.8000000000001 503.1 884.6 515.1 894.8000000000001 L 506.3 905.1 C 497 897 486.7 891.4 469.7 891.4 C 443.09999999999997 891.4 424.09999999999997 913.9 424.09999999999997 940.6999999999999 L 424.09999999999997 940.9999999999999 C 424.09999999999997 969.6999999999999 442.49999999999994 990.8999999999999 471.59999999999997 990.8999999999999 C 484.2 990.8999999999999 496.4 986.5999999999999 506.29999999999995 978.8999999999999 L 506.29999999999995 949 L 469.79999999999995 949 L 469.79999999999995 936.8 L 519.4 936.8 L 519.4 984.6999999999999 C 506.09999999999997 996.4999999999999 489 1002.9999999999999 471.2 1003.0999999999999 C 433.5 1002.8999999999999 410.09999999999997 975.4999999999999 410.09999999999997 941.1999999999999 z M 591.3 880.8 L 604.8 880.8 L 604.8 1000.9 L 591.3 1000.9 L 591.3 880.8 z M 679.4 880.8 L 765.6999999999999 880.8 L 765.6999999999999 893.3 L 692.9 893.3 L 692.9 936.1999999999999 L 757.9 936.1999999999999 L 757.9 948.4999999999999 L 692.9 948.4999999999999 L 692.9 1000.7999999999998 L 679.3 1000.7999999999998 L 679.4 880.7999999999998 z M 864.9 893.3 L 824.6 893.3 L 824.6 880.8 L 919 880.8 L 919 893.3 L 878.7 893.3 L 878.7 1000.9 L 865 1000.9 L 864.9 893.3 z M 972.4 983.4 L 980.8 973.4 C 993.3 984.6999999999999 1005.3 990.4 1022 990.4 C 1038.1 990.4 1048.8 981.8 1048.8 970 L 1048.8 969.7 C 1048.8 958.5 1042.8 952.2 1017.5999999999999 946.9000000000001 C 989.9999999999999 940.9000000000001 977.3 932.0000000000001 977.3 912.2 L 977.3 911.9000000000001 C 977.3 893.0000000000001 993.9 879.1000000000001 1016.8 879.1000000000001 C 1034.3 879.1000000000001 1046.8 884.1000000000001 1059 893.9000000000001 L 1051.1 904.4000000000001 C 1039.8999999999999 895.3000000000001 1028.8 891.4000000000001 1016.3999999999999 891.4000000000001 C 1000.7999999999998 891.4000000000001 990.7999999999998 900.0000000000001 990.7999999999998 910.8000000000001 L 990.7999999999998 911.1 C 990.7999999999998 922.4 996.9999999999999 928.8000000000001 1023.3999999999999 934.4 C 1050.1999999999998 940.1999999999999 1062.4999999999998 950 1062.4999999999998 968.4 L 1062.4999999999998 968.6999999999999 C 1062.4999999999998 989.3 1045.2999999999997 1002.6999999999999 1021.4999999999998 1002.6999999999999 C 1002.3999999999997 1002.5999999999999 986.7999999999997 996.3 972.3999999999997 983.4 z M 158.7 55.6 L 158.7 658.9 C 158.7 706.1 155.1 746.6 151.39999999999998 770.8 C 150.7 779 148.99999999999997 787.0999999999999 146.29999999999998 794.9 C 145.89999999999998 796.1999999999999 145.39999999999998 797.4 144.89999999999998 798.6999999999999 C 144.39999999999998 799.9999999999999 143.89999999999998 801.4999999999999 143.29999999999998 802.8 C 142.49999999999997 804.5999999999999 141.6 806.4 140.79999999999998 808.0999999999999 C 140.29999999999998 809.1999999999999 139.7 810.3 139.1 811.3999999999999 C 138.9 811.6999999999998 138.7 812.0999999999999 138.5 812.3999999999999 C 131.7 824.3999999999999 122.6 834.7999999999998 111.7 843.1999999999998 C 110.10000000000001 844.4999999999998 108.5 845.5999999999998 106.9 846.7999999999998 C 106.7 846.8999999999999 106.5 847.0999999999998 106.4 847.1999999999998 C 90.30000000000001 858.4999999999998 71.4 864.5999999999998 49.7 864.5999999999998 L 49.1 864.5999999999998 C 48.300000000000004 864.5999999999998 47.6 864.4999999999998 46.9 864.4999999999998 C 46.199999999999996 864.4999999999998 45.3 864.3999999999997 44.5 864.3999999999997 C 34.2 863.8999999999997 24 861.8999999999997 14.3 858.3999999999997 L 0 872.7 C 36.7 881.2 75 880 111.1 869.4000000000001 C 119.3 866.8000000000001 127.39999999999999 863.8000000000001 135.2 860.3000000000001 C 141.29999999999998 857.6 147.2 854.4000000000001 152.79999999999998 850.9000000000001 C 161.7 846.2 170.29999999999998 841.3000000000001 178.39999999999998 836.1000000000001 C 188.49999999999997 828.7000000000002 197.89999999999998 820.6000000000001 206.59999999999997 811.6000000000001 L 207.59999999999997 810.6000000000001 C 210.09999999999997 808.0000000000001 212.49999999999997 805.3000000000002 214.89999999999998 802.6000000000001 C 215.29999999999998 802.2000000000002 215.7 801.7000000000002 215.99999999999997 801.3000000000002 C 218.39999999999998 798.5000000000002 220.79999999999998 795.5000000000002 223.09999999999997 792.6000000000001 C 223.29999999999995 792.4000000000001 223.49999999999997 792.1000000000001 223.59999999999997 791.9000000000001 C 228.59999999999997 785.3000000000001 233.29999999999995 778.5000000000001 237.49999999999997 771.4000000000001 L 238.19999999999996 770.2 C 239.99999999999997 767.2 241.69999999999996 764.1 243.29999999999995 761 C 243.79999999999995 760.1 244.19999999999996 759.3 244.59999999999997 758.4 C 245.99999999999997 755.6999999999999 247.29999999999995 752.9 248.59999999999997 750.1999999999999 C 249.09999999999997 749.1999999999999 249.49999999999997 748.1999999999999 249.89999999999998 747.1999999999999 C 251.2 744.3 252.29999999999998 741.4 253.49999999999997 738.4999999999999 C 253.79999999999998 737.5999999999999 254.19999999999996 736.7999999999998 254.49999999999997 735.8999999999999 C 257.4 728.2999999999998 259.79999999999995 720.4999999999999 261.79999999999995 712.5999999999999 C 262.09999999999997 711.4999999999999 262.29999999999995 710.3999999999999 262.59999999999997 709.3 C 263.29999999999995 706.5 263.9 703.5999999999999 264.4 700.6999999999999 C 264.7 699.3 264.9 697.9 265.2 696.4999999999999 C 265.7 693.7999999999998 266.09999999999997 691.1999999999999 266.4 688.4999999999999 C 266.59999999999997 686.9999999999999 266.79999999999995 685.4999999999999 267 684.0999999999999 C 267.3 681.3 267.6 678.3999999999999 267.8 675.5999999999999 L 268.1 671.6999999999999 C 268.3 667.4999999999999 268.5 663.4 268.5 659.0999999999999 L 268.5 0.7 L 158.7 55.6 z M 736.4 0.7 C 554.6 0.7 407.3 148 407.3 329.8 C 407.3 511.6 554.6 658.9000000000001 736.4000000000001 658.9000000000001 C 918.2000000000002 658.9000000000001 1065.5 511.6000000000001 1065.5 329.80000000000007 C 1065.5 148.00000000000006 918.2 0.7 736.4 0.7 z M 736.4 645.3000000000001 C 645.5 645.3000000000001 571.8 615.0000000000001 571.8 329.9000000000001 C 571.8 44.80000000000007 645.5 14.5 736.4 14.5 C 827.3 14.5 901 44.8 901 329.9 C 901 615 827.3 645.3 736.4 645.3 z M 1315.1 0 L 1205.3 55 L 1205.3 659 L 1315.1 659 z" stroke-linecap="round" />
</g>
</svg>