<?xml version="1.0" standalone="no"?>
<!DOCTYPE svg PUBLIC "-//W3C//DTD SVG 20010904//EN"
 "http://www.w3.org/TR/2001/REC-SVG-20010904/DTD/svg10.dtd">
<svg version="1.0" xmlns="http://www.w3.org/2000/svg"
 width="500.000000pt" height="500.000000pt" viewBox="0 0 500.000000 500.000000"
 preserveAspectRatio="xMidYMid meet">

<g transform="translate(0.000000,500.000000) scale(0.100000,-0.100000)"
fill="#000000" stroke="none">
<path d="M2069 2480 c-52 -9 -116 -39 -141 -67 -48 -53 -61 -149 -29 -220 25
-55 85 -89 220 -125 58 -16 120 -36 139 -45 39 -19 72 -66 72 -104 0 -30 -41
-89 -75 -107 -84 -43 -244 -12 -326 64 l-25 24 -29 -30 c-27 -28 -28 -31 -11
-49 9 -10 43 -32 74 -49 146 -77 338 -68 419 20 50 53 67 145 39 212 -29 70
-81 97 -309 161 -76 21 -117 58 -124 111 -5 36 -1 45 26 77 41 46 87 61 167
54 60 -6 154 -43 169 -67 8 -13 19 -6 45 30 l21 29 -53 31 c-81 46 -177 64
-269 50z"/>
<path d="M1297 2473 c-4 -6 -196 -430 -313 -691 l-24 -53 45 3 46 3 37 87 c21
48 42 92 48 98 7 7 82 9 209 8 l199 -3 38 -90 c21 -49 42 -93 47 -98 4 -4 27
-7 49 -5 l41 3 -168 370 -167 370 -41 3 c-23 2 -43 -1 -46 -5z m62 -135 c8
-18 31 -70 52 -115 52 -110 89 -200 89 -213 0 -6 -59 -10 -166 -10 -129 0
-165 3 -161 13 25 64 161 357 166 357 3 0 12 -15 20 -32z"/>
<path d="M140 2100 l0 -370 40 0 40 0 2 300 3 299 90 -113 c50 -63 155 -198
235 -300 138 -177 147 -185 180 -186 l35 0 0 370 0 370 -40 0 -40 0 3 -290 c1
-159 -1 -290 -5 -290 -5 0 -112 131 -237 290 l-229 290 -39 0 -38 0 0 -370z"/>
<path d="M2630 2100 l0 -370 270 0 270 0 0 35 0 35 -227 2 -228 3 0 130 0 130
203 3 202 2 0 35 0 35 -205 0 -205 0 0 130 0 130 230 0 230 0 0 35 0 35 -270
0 -270 0 0 -370z"/>
<path d="M3390 2100 l0 -370 275 0 275 0 0 35 0 35 -235 0 -236 0 3 133 3 132
203 3 202 2 0 35 0 35 -205 0 -205 0 0 130 0 130 230 0 230 0 0 35 0 35 -270
0 -270 0 0 -370z"/>
<path d="M4150 2100 l0 -370 40 0 40 0 2 298 3 297 90 -130 c50 -72 110 -161
135 -198 l45 -67 17 22 c10 13 70 102 135 198 l118 175 3 -298 2 -297 40 0 40
0 0 370 0 370 -42 0 -43 -1 -133 -200 c-73 -111 -135 -199 -137 -197 -1 1 -62
92 -134 201 l-131 197 -45 0 -45 0 0 -370z"/>
<path d="M1945 1140 c-19 -12 -45 -49 -70 -97 -25 -47 -50 -82 -65 -90 -15 -8
-64 -13 -122 -13 -91 0 -98 -1 -98 -20 0 -19 7 -20 119 -20 101 0 122 3 142
19 23 18 24 18 63 -2 21 -11 62 -23 90 -25 44 -4 56 0 82 21 29 25 30 25 53 6
29 -24 170 -27 214 -5 23 13 31 13 55 0 18 -9 60 -14 128 -14 86 0 106 3 125
19 22 18 25 18 42 3 26 -23 126 -28 165 -8 27 14 33 14 59 1 37 -19 113 -19
141 1 20 14 24 14 44 0 18 -13 52 -16 160 -16 129 0 138 1 138 19 0 18 -10 20
-136 23 -129 3 -137 4 -155 27 -14 17 -19 39 -19 87 0 57 -2 64 -20 64 -18 0
-20 -7 -20 -64 0 -81 -20 -110 -75 -110 -49 0 -75 30 -75 89 0 33 -4 44 -19
48 -16 4 -19 -3 -24 -51 -7 -69 -23 -85 -83 -85 -59 0 -84 25 -84 88 0 34 -4
44 -20 48 -18 5 -20 0 -20 -43 0 -75 -21 -94 -106 -94 -146 1 -164 14 -164
120 0 46 -3 54 -19 54 -16 0 -19 -9 -23 -75 -2 -42 -9 -80 -16 -87 -8 -8 -40
-13 -86 -13 -93 0 -116 16 -116 82 0 24 -7 57 -15 73 -30 58 -113 77 -170 40z
m116 -49 c37 -37 41 -99 8 -132 -18 -18 -30 -21 -73 -17 -28 2 -63 12 -77 22
-25 16 -26 19 -15 48 16 44 78 108 105 108 12 0 36 -13 52 -29z"/>
<path d="M3240 1096 c0 -21 5 -26 26 -26 21 0 25 4 22 23 -2 14 -11 23 -25 25
-19 3 -23 -1 -23 -22z"/>
<path d="M2338 843 c-11 -3 -18 -14 -18 -29 0 -21 4 -25 22 -22 23 3 37 34 21
47 -4 4 -16 6 -25 4z"/>
<path d="M2383 834 c-8 -22 5 -44 27 -44 28 0 28 46 -1 53 -12 3 -22 0 -26 -9z"/>
</g>
</svg>
